<svg width="18" height="14" viewBox="0 0 18 14" fill="none" xmlns="http://www.w3.org/2000/svg">
<path d="M17.6536 9.72634L15.6234 4.095C16.1519 3.91738 16.5327 3.41827 16.5327 2.82994C16.5327 2.09273 15.9353 1.49532 15.1981 1.49532C15.1604 1.49532 15.1231 1.49729 15.0861 1.50037C13.1727 1.61238 11.3204 1.67044 9.47231 1.67709L9.09157 0L8.7108 1.67688C6.86179 1.66925 5.0091 1.61037 3.096 1.50029C3.05933 1.49725 3.02238 1.49532 2.98494 1.49532C2.24772 1.49532 1.65032 2.09277 1.65032 2.82994C1.65032 3.41827 2.0311 3.91738 2.55965 4.095L0.529454 9.72634H0C0 10.4774 1.35601 11.0862 3.02875 11.0862C4.70144 11.0862 6.0572 10.4774 6.0572 9.72634H5.52804L3.4875 4.0663C3.97532 3.86774 4.31951 3.38912 4.31951 2.82994C4.31951 2.59919 4.26092 2.38219 4.15786 2.19287C5.43418 2.87231 6.93451 3.25223 8.4621 3.33332L8.53876 10.06C8.36656 10.1842 8.23788 10.3648 8.17966 10.5748C8.00458 10.7823 7.89886 11.0503 7.89886 11.3431C7.89886 11.6716 8.03176 11.9691 8.24675 12.1847C8.18192 12.3129 8.14513 12.4577 8.14513 12.6112C8.14513 12.6338 8.1462 12.6562 8.14776 12.6784C6.96198 12.8503 6.02214 13.3377 5.67043 13.96H12.5124C12.1608 13.3377 11.2209 12.8503 10.0351 12.6784C10.0367 12.6562 10.0377 12.6338 10.0377 12.6112C10.0377 12.4577 10.0009 12.3129 9.93611 12.1847C10.1511 11.9691 10.284 11.6716 10.284 11.3431C10.284 11.0503 10.1783 10.7823 10.0032 10.5748C9.94502 10.3648 9.81635 10.1842 9.64419 10.0601L9.72076 3.33274C11.2493 3.25013 12.7503 2.86866 14.0265 2.1902C13.9226 2.38018 13.8633 2.59816 13.8633 2.82998C13.8633 3.38916 14.2075 3.86778 14.6954 4.06634L12.6549 9.72638H12.1257C12.1257 10.4774 13.4815 11.0862 15.1542 11.0862C16.8268 11.0862 18.1829 10.4774 18.1829 9.72638H17.6536V9.72634ZM2.82345 9.72634H0.965868L2.82345 4.57387V9.72634ZM5.09162 9.72634H3.23404V4.57387L5.09162 9.72634ZM15.3595 4.57387L17.2171 9.72634H15.3595V4.57387ZM14.9489 4.57387V9.72634H13.0914L14.9489 4.57387Z" fill="#333333"/>
</svg>
