<svg width="32" height="32" viewBox="0 0 32 32" fill="none" xmlns="http://www.w3.org/2000/svg">
<g filter="url(#filter0_b_118_401)">
<rect width="32" height="32" rx="6" fill="#E8E8E8" fill-opacity="0.4"/>
<g clip-path="url(#clip0_118_401)">
<path d="M16 22.5625C14.5928 22.5625 13.5802 22.5618 12.7907 22.4852C12.0103 22.4096 11.5111 22.2642 11.1126 22.0138C10.6573 21.7277 10.2722 21.3427 9.98607 20.8874C9.7358 20.4889 9.59033 19.9897 9.51476 19.2093C9.4382 18.4198 9.4375 17.4072 9.4375 16C9.4375 14.5928 9.4382 13.5802 9.51476 12.7907C9.59033 12.0103 9.7358 11.5111 9.98607 11.1126C10.2722 10.6572 10.6572 10.2722 11.1126 9.98607C11.5111 9.7358 12.0103 9.59033 12.7907 9.51476C13.5801 9.4382 14.5927 9.4375 16 9.4375C17.4072 9.4375 18.4198 9.4382 19.2093 9.51476C19.9897 9.59033 20.4889 9.7358 20.8874 9.98607C21.3427 10.2722 21.7277 10.6573 22.0138 11.1126C22.2642 11.5111 22.4096 12.0103 22.4852 12.7907C22.5618 13.5802 22.5625 14.5928 22.5625 16C22.5625 17.4072 22.5618 18.4198 22.4852 19.2093C22.4096 19.9897 22.2642 20.4889 22.0138 20.8874C21.7277 21.3427 21.3427 21.7277 20.8874 22.0138C20.4889 22.2642 19.9897 22.4096 19.2093 22.4852C18.4198 22.5618 17.4072 22.5625 16 22.5625Z" stroke="white" stroke-width="1.4"/>
<path d="M16 18.9829C17.6475 18.9829 18.983 17.6474 18.983 15.9999C18.983 14.3525 17.6475 13.017 16 13.017C14.3526 13.017 13.0171 14.3525 13.0171 15.9999C13.0171 17.6474 14.3526 18.9829 16 18.9829Z" stroke="white" stroke-width="1.4"/>
<path d="M19.8779 13.017C20.3722 13.017 20.7728 12.6164 20.7728 12.1221C20.7728 11.6279 20.3722 11.2272 19.8779 11.2272C19.3837 11.2272 18.983 11.6279 18.983 12.1221C18.983 12.6164 19.3837 13.017 19.8779 13.017Z" fill="white"/>
</g>
</g>
<defs>
<filter id="filter0_b_118_401" x="-40" y="-40" width="112" height="112" filterUnits="userSpaceOnUse" color-interpolation-filters="sRGB">
<feFlood flood-opacity="0" result="BackgroundImageFix"/>
<feGaussianBlur in="BackgroundImageFix" stdDeviation="20"/>
<feComposite in2="SourceAlpha" operator="in" result="effect1_backgroundBlur_118_401"/>
<feBlend mode="normal" in="SourceGraphic" in2="effect1_backgroundBlur_118_401" result="shape"/>
</filter>
<clipPath id="clip0_118_401">
<rect width="15" height="15" fill="white" transform="translate(8.5 8.5)"/>
</clipPath>
</defs>
</svg>
